<!--?xml version="1.0" encoding="utf-8"?-->
<!-- Generator: Adobe Illustrator 25.0.0, SVG Export Plug-In . SVG Version: 6.00 Build 0)  -->
<svg version="1.1" id="Layer_1" xmlns="http://www.w3.org/2000/svg" xmlns:xlink="http://www.w3.org/1999/xlink" x="0px" y="0px" viewBox="0 0 595.3 213" style="enable-background:new 0 0 595.3 213;" xml:space="preserve" width="595.2999877929688" height="213">
<g>
	<path style="fill: rgb(255, 255, 255); stroke: rgb(255, 255, 255); stroke-width: 2; stroke-miterlimit: 10;" d="M173.9,111.6c-27.1,0-53.8,0-80.5,0
		c-1,6.5,5,15.9,12.5,20c12.5,6.8,28.2,4.4,40.3-6.1c6.7,3.2,13.4,6.3,20.2,9.5c-4.7,16.1-38.8,27.2-61.2,20.2
		c-15.9-5-27.6-15-33.3-30.8c-5.6-15.4-5.1-30.8,2.5-46c-3.1,0-5.9,0-9.2,0c0,26.1,0,52.1,0,78.4c-8.5,0-16.6,0-25.2,0
		c0-26.1,0-52.1,0-78.6c-4.4,0-8.3,0-12.6,0c0-7.3,0-14.2,0-21.7c4,0,8,0,12.4,0c0-12.4,0-24.4,0-36.7c8.5,0,16.6,0,25.3,0
		c0,12.1,0,24.1,0,36.5c5.1,0,9.8,0,14.9,0c0,7,0,13.7,0,20.7c1.7,0,2.9,0,4.7,0c0-1.5,0.2-3,0-4.4c-1.3-6.7,2.5-10.4,7.5-13.6
		c14.2-8.9,29.5-9.3,45.1-5.1c22.1,6,35.7,25.8,36.6,48.8C174,105.5,173.9,108.2,173.9,111.6z M147.9,91.4
		c-1-9.2-13.5-18.9-26.1-18.8c-13,0-25,7.9-27,18.8C112.5,91.4,130.2,91.4,147.9,91.4z" class="svg-elem-1"></path>
	<path style="fill: rgb(255, 255, 255); stroke: rgb(255, 255, 255); stroke-width: 2; stroke-miterlimit: 10;" d="M553,110.9c-27.5,0-54.3,0-81.2,0
		c0.3,10.8,9.3,20.4,20.9,22.7c11.2,2.2,21.3-0.2,30.2-7.4c0.8-0.7,2.4-1.4,3.1-1c6.6,2.9,13.1,6.1,19.7,9.3
		c-10.3,14.3-24.2,21.1-41.3,21.8c-13.5,0.6-26.1-1.9-37-10.3c-11.6-8.8-18.3-20.4-19.9-35c-1.2-11-0.3-21.8,4.9-31.7
		c9-17.3,23.1-27.4,43-28.4c11.7-0.6,22.8,1.1,32.9,7.5c13.7,8.8,21.2,21.4,23.5,37.2C552.6,100.6,552.7,105.5,553,110.9z
		 M527.2,90.9c-1.4-9.2-13.3-19.6-27.3-19.2c-12.9,0.4-23.5,7.6-27,19.2C491,90.9,508.9,90.9,527.2,90.9z" class="svg-elem-2"></path>
	<path style="fill: rgb(255, 255, 255); stroke: rgb(255, 255, 255); stroke-width: 2; stroke-miterlimit: 10;" d="M357.8,134.3c-12.7,17.7-30.2,23.2-50.7,21.8
		c-24.2-1.7-43.5-18.3-47.2-42.1c-3.6-23.6,3.5-44.4,26.1-57.3c17.4-9.9,45.4-8,61.3,7c13.6,12.8,18,28.7,17.1,47.1
		c-27,0-53.8,0-80.6,0c0.4,10.9,9.3,20.6,20.6,22.8c11.4,2.2,21.7-0.1,30.8-7.6c0.7-0.6,2.1-1,2.8-0.6
		C344.7,128.2,351.2,131.2,357.8,134.3z M285,91c18.2,0,36,0,53.9,0c-0.9-8.9-12.5-19.8-27.8-19.2C298.3,72.3,287.4,80.3,285,91z" class="svg-elem-3"></path>
	<path style="fill: rgb(255, 255, 255); stroke: rgb(255, 255, 255); stroke-width: 2; stroke-miterlimit: 10;" d="M195.7,154.4c-8.4,0-16.3,0-24.8,0
		c0-13.3,0-26.6,0-40.1c2.2-0.1,4.1-0.3,6.9-0.5c-0.4-6.5-0.5-12.9-1.2-19.3c-0.8-6.6-1.5-13.4-5.6-19.2c-0.4-0.6-0.3-1.7-0.3-2.6
		c0-6.1,0-12.2,0-18.5c8.5,0,16.5,0,24.9,0c0,3,0,5.7,0,9.3c1.8-1.1,3-1.7,4.2-2.5c7.4-5.4,15.2-9.5,24.6-9.5
		c10.8-0.1,19.6,4.6,26.9,12c3.1,3.2,5.5,7.3,7.3,11.4c0.9,1.9,0.4,5-0.5,7.1c-5.1,12.2-5.1,24.7-3,37.4c0.2,1.2,0.5,2.5,1.1,3.6
		c5.9,9.9,2.1,20.7,3.5,31.3c-8.5,0-16.4,0-25,0c0-1.3,0-2.6,0-3.9c0-16,0.1-32-0.1-48c0-5-0.3-10-1.3-14.8
		c-2.8-14.8-18.1-15.9-26.9-10c-7.5,5.1-10.5,13-10.7,21.6c-0.4,17.5-0.2,35-0.2,52.5C195.7,152.4,195.7,153.2,195.7,154.4z" class="svg-elem-4"></path>
	<path style="fill: rgb(255, 255, 255); stroke: rgb(255, 255, 255); stroke-width: 2; stroke-miterlimit: 10;" d="M362.4,111.9c3,0,5.8,0,9,0
		c0.3-9.7,0.1-19-3.1-28c-1.1-3.2-0.8-5.6,1.1-8.3c11.1-16,26.5-23.8,45.8-24.8c14.5-0.8,27.2,3.6,38.7,11.6
		c-4.3,6.1-8.7,12.2-13.2,18.6c-2.2-1.1-4.7-2.5-7.3-3.7c-10.6-4.8-21.3-5-31.6,0.5c-12.2,6.5-17.2,18.5-14.7,32.7
		c2.1,12,11.4,20.7,23.9,22.5c10.5,1.5,20.1-0.3,28.7-6.7c0.6-0.4,1.2-0.7,1.3-0.8c4.4,6.3,8.7,12.4,13.1,18.6
		c-7.5,5.1-16.1,9.2-25.5,10.9c-17.1,3.1-33.4,0.7-47.4-10.3c-9-7.1-15.5-16.1-18.6-27.4c-0.2-0.8-0.4-1.7-0.4-2.6
		C362.2,114,362.3,113.1,362.4,111.9z" class="svg-elem-5"></path>
	<path style="fill: rgb(218, 37, 28); stroke: rgb(218, 37, 28); stroke-width: 2; stroke-miterlimit: 10;" d="M487.4,11.8c5.7,6.9,11.2,13.5,17,20.5
		c-10.7,6.4-20.9,12.4-31.1,18.5c-4.2,2.5-8.4,5.2-12.8,7.5c-1.2,0.7-3.3,1-4.4,0.4c-4.5-2.3-8.8-5-13.8-8
		C457.3,37.9,472.2,25,487.4,11.8z" class="svg-elem-6"></path>
</g>
</svg>
